<?xml version="1.0" standalone="no"?>
<!DOCTYPE svg PUBLIC "-//W3C//DTD SVG 20010904//EN"
 "http://www.w3.org/TR/2001/REC-SVG-20010904/DTD/svg10.dtd">
<svg version="1.0" xmlns="http://www.w3.org/2000/svg"
 width="700.000000pt" height="700.000000pt" viewBox="0 0 700.000000 700.000000"
 preserveAspectRatio="xMidYMid meet">
<metadata>
Created by potrace 1.11, written by Peter Selinger 2001-2013
</metadata>
<g transform="translate(0.000000,700.000000) scale(0.100000,-0.100000)"
fill="#000000" stroke="none">
<path d="M1180 6989 c-83 -12 -189 -36 -255 -58 -187 -62 -366 -173 -515 -321
-193 -190 -312 -398 -370 -643 -10 -45 -23 -95 -27 -112 -11 -42 -14 -4620 -3
-4675 4 -25 11 -61 14 -80 19 -119 89 -303 162 -426 186 -316 503 -554 848
-634 45 -10 101 -23 126 -27 25 -4 1082 -8 2350 -8 2173 0 2310 1 2388 18 374
81 676 283 878 590 75 113 159 299 179 397 11 53 27 120 32 140 12 39 13 4594
2 4669 -44 303 -170 560 -373 765 -106 107 -130 127 -214 184 -148 101 -345
180 -531 212 -101 18 -209 19 -2371 18 -1246 0 -2290 -4 -2320 -9z"/>
</g>
</svg>
